<svg width="48" height="48" viewBox="0 0 48 48" fill="none" xmlns="http://www.w3.org/2000/svg">
<g clip-path="url(#clip0_1_231)">
<path d="M29.25 0.75C28.8359 0.75 28.5 1.08594 28.5 1.5V5.25C28.5 6.48828 27.4883 7.5 26.25 7.5C24.1836 7.5 22.5 9.18359 22.5 11.25V13.5H19.8867C19.3476 13.5 18.8047 13.2852 18.3633 12.9023C17.4609 12.1172 16.4336 11.5195 15.3047 11.1211C12.6953 10.207 9.92186 10.4141 7.48827 11.6953C5.08983 12.9609 3.31249 15.1914 2.60936 17.8086C0.0781102 27.2461 0.957016 37.3359 2.14452 44.1367C2.39842 45.5938 3.44139 46.7344 4.87108 47.1172C6.29686 47.5039 7.77342 47.0352 8.72264 45.8984C11.0976 43.0547 13.25 40.0781 15.125 37.0508C15.5234 36.4023 16.2539 36 17.0273 36H31.043C31.8164 36 32.5469 36.4023 32.9453 37.0508C34.8203 40.0781 36.9726 43.0586 39.3476 45.8984C40.0781 46.7734 41.1211 47.25 42.2109 47.25C42.539 47.25 42.875 47.207 43.2031 47.1211C44.6289 46.7383 45.6719 45.5938 45.9219 44.1406C47.0898 37.4492 47.9726 27.5117 45.5547 18.1602C44.25 13.1094 39.3359 9.83594 34.3594 10.707C32.6172 11.0117 30.9922 11.7773 29.664 12.9219C29.2344 13.2969 28.7031 13.5 28.168 13.5H24V11.25C24 10.0117 25.0117 9 26.25 9C28.3203 9 30 7.32031 30 5.25V1.5C30 1.08594 29.664 0.75 29.25 0.75ZM12.2812 12.0664C13.1289 12.0898 13.9765 12.25 14.8086 12.5391C15.7578 12.875 16.625 13.375 17.3789 14.0352C17.5859 14.2109 17.8086 14.3633 18.043 14.4922L19.1992 17.9609C19.5039 18.8828 20.3633 19.5 21.332 19.5H26.668C27.6406 19.5 28.4961 18.8828 28.8047 17.9609L29.9492 14.5273C30.1914 14.3984 30.4297 14.2461 30.6406 14.0586C31.7656 13.0938 33.1406 12.4414 34.6172 12.1836C38.8242 11.4453 42.9922 14.2344 44.1055 18.5352C46.4531 27.6289 45.5859 37.3398 44.4453 43.8867C44.293 44.7734 43.6836 45.4414 42.8125 45.6719C41.9453 45.9023 41.0781 45.6289 40.5 44.9375C38.1719 42.1484 36.0547 39.2305 34.2187 36.2578C33.5469 35.1758 32.332 34.5 31.043 34.5H17.0273C15.7383 34.5 14.5234 35.1758 13.8515 36.2578C12.0156 39.2305 9.89842 42.1484 7.5703 44.9375C6.99217 45.6289 6.12499 45.9062 5.2578 45.668C4.39061 45.4375 3.77733 44.7695 3.62108 43.8789C2.46483 37.2266 1.60155 27.3711 4.05467 18.1953C4.64842 15.9805 6.15624 14.0938 8.18749 13.0195C9.47655 12.3398 10.8711 12.0195 12.2812 12.0664ZM19.789 15H28.2109L27.3828 17.4883C27.2773 17.7969 26.9922 18 26.668 18H21.332C21.0078 18 20.7226 17.7969 20.6211 17.4883L19.789 15ZM12 16.5C11.1758 16.5 10.5 17.1758 10.5 18V20.25H8.24999C7.42577 20.25 6.74999 20.9258 6.74999 21.75V22.5C6.74999 23.3281 7.42577 24 8.24999 24H10.5V26.25C10.5 27.0781 11.1758 27.75 12 27.75H12.75C13.5781 27.75 14.25 27.0781 14.25 26.25V24H16.5C17.3281 24 18 23.3281 18 22.5V21.75C18 20.9258 17.3281 20.25 16.5 20.25H14.25V18C14.25 17.1758 13.5781 16.5 12.75 16.5H12ZM35.625 16.5C34.5898 16.5 33.75 17.3398 33.75 18.375C33.75 19.4102 34.5898 20.25 35.625 20.25C36.6601 20.25 37.5 19.4102 37.5 18.375C37.5 17.3398 36.6601 16.5 35.625 16.5ZM12 18H12.75V20.25C12.75 21.0781 13.4258 21.75 14.25 21.75H16.5V22.5H14.25C13.4258 22.5 12.75 23.1758 12.75 24V26.25H12V24C12 23.1758 11.3281 22.5 10.5 22.5H8.24999V21.75H10.5C11.3281 21.75 12 21.0781 12 20.25V18ZM31.875 20.25C30.8398 20.25 30 21.0898 30 22.125C30 23.1602 30.8398 24 31.875 24C32.9101 24 33.75 23.1602 33.75 22.125C33.75 21.0898 32.9101 20.25 31.875 20.25ZM39.375 20.25C38.3398 20.25 37.5 21.0898 37.5 22.125C37.5 23.1602 38.3398 24 39.375 24C40.4101 24 41.25 23.1602 41.25 22.125C41.25 21.0898 40.4101 20.25 39.375 20.25ZM35.625 24C34.5898 24 33.75 24.8398 33.75 25.875C33.75 26.9102 34.5898 27.75 35.625 27.75C36.6601 27.75 37.5 26.9102 37.5 25.875C37.5 24.8398 36.6601 24 35.625 24ZM18.75 27C18.3359 27 18 27.3359 18 27.75C18 28.1641 18.3359 28.5 18.75 28.5H29.25C29.664 28.5 30 28.1641 30 27.75C30 27.3359 29.664 27 29.25 27H18.75ZM16.5 30C16.0859 30 15.75 30.3359 15.75 30.75V32.25C15.75 32.6641 16.0859 33 16.5 33C16.914 33 17.25 32.6641 17.25 32.25V30.75C17.25 30.3359 16.914 30 16.5 30ZM20.25 30C19.8359 30 19.5 30.3359 19.5 30.75V32.25C19.5 32.6641 19.8359 33 20.25 33C20.664 33 21 32.6641 21 32.25V30.75C21 30.3359 20.664 30 20.25 30ZM24 30C23.5859 30 23.25 30.3359 23.25 30.75V32.25C23.25 32.6641 23.5859 33 24 33C24.414 33 24.75 32.6641 24.75 32.25V30.75C24.75 30.3359 24.414 30 24 30ZM27.75 30C27.3359 30 27 30.3359 27 30.75V32.25C27 32.6641 27.3359 33 27.75 33C28.164 33 28.5 32.6641 28.5 32.25V30.75C28.5 30.3359 28.164 30 27.75 30ZM31.5 30C31.0859 30 30.75 30.3359 30.75 30.75V32.25C30.75 32.6641 31.0859 33 31.5 33C31.914 33 32.25 32.6641 32.25 32.25V30.75C32.25 30.3359 31.914 30 31.5 30Z" fill="#38484E"/>
</g>
<defs>
<clipPath id="clip0_1_231">
<rect width="48" height="48" fill="white"/>
</clipPath>
</defs>
</svg>
