<svg width="48" height="48" viewBox="0 0 48 48" fill="none" xmlns="http://www.w3.org/2000/svg">
<path d="M5.25 6C4.01172 6 3 7.01172 3 8.25V39.75C3 40.9883 4.01172 42 5.25 42H42.75C43.9883 42 45 40.9883 45 39.75V8.25C45 7.01172 43.9883 6 42.75 6H5.25ZM5.25 7.5H42.75C43.1641 7.5 43.5 7.83594 43.5 8.25V39.75C43.5 40.1641 43.1641 40.5 42.75 40.5H5.25C4.83594 40.5 4.5 40.1641 4.5 39.75V15H35.25C35.668 15 36 14.6641 36 14.25C36 13.8359 35.668 13.5 35.25 13.5H4.5V8.25C4.5 7.83594 4.83594 7.5 5.25 7.5ZM7.5 9C7.08594 9 6.75 9.33594 6.75 9.75V11.25C6.75 11.6641 7.08594 12 7.5 12C7.91797 12 8.25 11.6641 8.25 11.25V9.75C8.25 9.33594 7.91797 9 7.5 9ZM11.25 9C10.8359 9 10.5 9.33594 10.5 9.75V11.25C10.5 11.6641 10.8359 12 11.25 12C11.668 12 12 11.6641 12 11.25V9.75C12 9.33594 11.668 9 11.25 9ZM15 9C14.5859 9 14.25 9.33594 14.25 9.75V11.25C14.25 11.6641 14.5859 12 15 12C15.418 12 15.75 11.6641 15.75 11.25V9.75C15.75 9.33594 15.418 9 15 9ZM18.75 9C18.3359 9 18 9.33594 18 9.75V11.25C18 11.6641 18.3359 12 18.75 12C19.168 12 19.5 11.6641 19.5 11.25V9.75C19.5 9.33594 19.168 9 18.75 9ZM22.5 9C22.0859 9 21.75 9.33594 21.75 9.75V11.25C21.75 11.6641 22.0859 12 22.5 12C22.918 12 23.25 11.6641 23.25 11.25V9.75C23.25 9.33594 22.918 9 22.5 9ZM26.25 9C25.8359 9 25.5 9.33594 25.5 9.75V11.25C25.5 11.6641 25.8359 12 26.25 12C26.668 12 27 11.6641 27 11.25V9.75C27 9.33594 26.668 9 26.25 9ZM30 9C29.5859 9 29.25 9.33594 29.25 9.75V11.25C29.25 11.6641 29.5859 12 30 12C30.418 12 30.75 11.6641 30.75 11.25V9.75C30.75 9.33594 30.418 9 30 9ZM33.75 9C33.3359 9 33 9.33594 33 9.75V11.25C33 11.6641 33.3359 12 33.75 12C34.168 12 34.5 11.6641 34.5 11.25V9.75C34.5 9.33594 34.168 9 33.75 9ZM37.5 9C37.0859 9 36.75 9.33594 36.75 9.75V11.25C36.75 11.6641 37.0859 12 37.5 12C37.918 12 38.25 11.6641 38.25 11.25V9.75C38.25 9.33594 37.918 9 37.5 9ZM41.25 9C40.8359 9 40.5 9.33594 40.5 9.75V11.25C40.5 11.6641 40.8359 12 41.25 12C41.668 12 42 11.6641 42 11.25V9.75C42 9.33594 41.668 9 41.25 9ZM38.25 13.5C37.8359 13.5 37.5 13.8359 37.5 14.25C37.5 14.6641 37.8359 15 38.25 15H41.25C41.668 15 42 14.6641 42 14.25C42 13.8359 41.668 13.5 41.25 13.5H38.25ZM26.1328 18.0078C25.8477 18.0547 25.5977 18.2656 25.5234 18.5703L21.0234 36.5703C20.9219 36.9688 21.168 37.3789 21.5703 37.4766C21.6289 37.4961 21.6914 37.5 21.75 37.5C22.0859 37.5 22.3906 37.2734 22.4766 36.9336L26.9766 18.9336C27.0781 18.5312 26.832 18.125 26.4336 18.0234C26.332 17.9961 26.2305 17.9922 26.1328 18.0078ZM17.25 22.5C17.0586 22.5 16.8672 22.5742 16.7188 22.7188L12.2188 27.2188C11.9258 27.5117 11.9258 27.9883 12.2188 28.2812L16.7188 32.7812C16.8672 32.9258 17.0586 33 17.25 33C17.4453 33 17.6328 32.9258 17.7812 32.7812C18.0742 32.4883 18.0742 32.0117 17.7812 31.7188L13.8125 27.75L17.7812 23.7812C18.0742 23.4883 18.0742 23.0117 17.7812 22.7188C17.6328 22.5742 17.4414 22.5 17.25 22.5ZM30.75 22.5C30.5586 22.5 30.3672 22.5742 30.2188 22.7188C29.9258 23.0117 29.9258 23.4883 30.2188 23.7812L34.1914 27.75L30.2188 31.7188C29.9258 32.0117 29.9258 32.4883 30.2188 32.7812C30.3672 32.9258 30.5586 33 30.75 33C30.9453 33 31.1328 32.9258 31.2812 32.7812L35.7812 28.2812C36.0742 27.9883 36.0742 27.5117 35.7812 27.2188L31.2812 22.7188C31.1328 22.5742 30.9414 22.5 30.75 22.5Z" fill="#5F0EC7"/>
</svg>
