<svg width="24" height="24" viewBox="0 0 24 24" fill="none" xmlns="http://www.w3.org/2000/svg">
<path d="M22.1458 3.1448C21.7858 2.83952 21.2203 2.79584 20.6357 3.03056H20.6347C20.0198 3.27728 3.22943 10.4792 2.54591 10.7734C2.42159 10.8166 1.33583 11.2218 1.44767 12.1242C1.54751 12.9378 2.42015 13.2747 2.52671 13.3136L6.79535 14.7752C7.07855 15.7179 8.12255 19.196 8.35343 19.939C8.49743 20.4022 8.73215 21.0109 9.14351 21.1362C9.50447 21.2754 9.86351 21.1482 10.0958 20.9658L12.7056 18.5451L16.9186 21.8307L17.0189 21.8907C17.305 22.0174 17.579 22.0808 17.8406 22.0808C18.0427 22.0808 18.2366 22.0429 18.4219 21.967C19.0531 21.7078 19.3056 21.1064 19.332 21.0382L22.4789 4.68128C22.6709 3.80768 22.404 3.3632 22.1458 3.1448ZM10.56 15.3598L9.11999 19.1998L7.67999 14.3998L18.72 6.23984L10.56 15.3598Z" fill="white"/>
</svg>
